HIERARCHY
ROOT Hips
{
  OFFSET 3.13124 94.3669 -3.18751
  CHANNELS  6 Xposition Yposition Zposition Zrotation Xrotation Yrotation
  JOINT LeftUpLeg
  {
    OFFSET 8.64259 1.95398 -2.38835
    CHANNELS 3 Zrotation Xrotation Yrotation
    JOINT LeftLeg
    {
      OFFSET 43.7702 0 0
      CHANNELS 3 Zrotation Xrotation Yrotation
      JOINT LeftFoot
      {
        OFFSET 40.6238 0 0
        CHANNELS 3 Zrotation Xrotation Yrotation
        JOINT LeftToeBase
        {
          OFFSET 12.7242 0 0
          CHANNELS 3 Zrotation Xrotation Yrotation
          End Site
          {
            OFFSET 0 0 0
          }
        }
      }
    }
  }
  JOINT RightUpLeg
  {
    OFFSET -8.2249 1.95398 -2.59336
    CHANNELS 3 Zrotation Xrotation Yrotation
    JOINT RightLeg
    {
      OFFSET 43.5653 0 0
      CHANNELS 3 Zrotation Xrotation Yrotation
      JOINT RightFoot
      {
        OFFSET 40.6238 0 0
        CHANNELS 3 Zrotation Xrotation Yrotation
        JOINT RightToeBase
        {
          OFFSET 12.7242 0 0
          CHANNELS 3 Zrotation Xrotation Yrotation
          End Site
          {
            OFFSET 0 0 0
          }
        }
      }
    }
  }
  JOINT Spine
  {
    OFFSET 0.165834 0.87714 6.61349
    CHANNELS 3 Zrotation Xrotation Yrotation
    JOINT Spine1
    {
      OFFSET 7.38962 1.71661e-005 0
      CHANNELS 3 Zrotation Xrotation Yrotation
      JOINT Spine2
      {
        OFFSET 11.9445 1.14441e-005 0
        CHANNELS 3 Zrotation Xrotation Yrotation
        JOINT Spine3
        {
          OFFSET 14.7254 4.19617e-005 0
          CHANNELS 3 Zrotation Xrotation Yrotation
          JOINT Spine4
          {
            OFFSET 10.9679 0 0
            CHANNELS 3 Zrotation Xrotation Yrotation
            JOINT RightShoulder
            {
              OFFSET 2.46616 -1.6653 3.69651
              CHANNELS 3 Zrotation Xrotation Yrotation
              JOINT RightArm
              {
                OFFSET 13.0012 0 0
                CHANNELS 3 Zrotation Xrotation Yrotation
                JOINT RightForeArm
                {
                  OFFSET 28.7848 1.52588e-005 0
                  CHANNELS 3 Zrotation Xrotation Yrotation
                  JOINT RightHand
                  {
                    OFFSET 26.5688 1.52588e-005 0
                    CHANNELS 3 Zrotation Xrotation Yrotation
                    End Site
                    {
                      OFFSET 0 0 0
                    }
                  }
                }
              }
            }
            JOINT LeftShoulder
            {
              OFFSET 2.38034 -1.29275 -3.75231
              CHANNELS 3 Zrotation Xrotation Yrotation
              JOINT LeftArm
              {
                OFFSET 16.3182 6.10352e-005 0
                CHANNELS 3 Zrotation Xrotation Yrotation
                JOINT LeftForeArm
                {
                  OFFSET 27.0901 0 0
                  CHANNELS 3 Zrotation Xrotation Yrotation
                  JOINT LeftHand
                  {
                    OFFSET 24.5451 1.52588e-005 0
                    CHANNELS 3 Zrotation Xrotation Yrotation
                    End Site
                    {
                      OFFSET 0 0 0
                    }
                  }
                }
              }
            }
            JOINT Neck
            {
              OFFSET 5.0226 -0.0266342 0
              CHANNELS 3 Zrotation Xrotation Yrotation
              JOINT Head
              {
                OFFSET 6.69363 2.86102e-005 0
                CHANNELS 3 Zrotation Xrotation Yrotation
                End Site
                {
                  OFFSET 0 0 0
                }
              }
            }
          }
        }
      }
    }
  }
}
MOTION
Frames:	10
Frame Time:	0.0333333
33.7522 103.33 2.02319 -89.7214 -64.2822 -90.4169 179.696 16.1065 90.5383 -27.8011 -34.5585 -2.30243 21.4592 2.09305 0.814279 28.7808 3.88115e-006 -9.74356e-007 -178.863 1.91042 93.7231 -5.7272 -52.808 -3.41866 8.92066 2.91905 6.82792 28.7808 1.25261e-005 1.77577e-005 -0.714263 6.49525 -89.0867 13.892 -0.951346 2.25498 2.21934 -0.851203 2.29463 -20.3072 -1.58498 1.86134 -0.294534 -1.58498 1.8613 105.059 11.9776 -63.695 10.0915 22.4331 -28.5569 3.69481 69.6141 -10.1915 -29.6959 -1.17397 -0.660511 -77.8548 -25.8321 96.8986 14.1882 -25.7733 -0.11325 2.54448 12.6989 -3.59281 18.4002 0.351845 -1.95992 6.01225 28.4739 21.0362 -6.08066 24.3009 -2.14457 
34.6789 103.435 2.36349 -89.6658 -59.7497 -90.3229 179.569 15.1079 90.1482 -27.3329 -38.2643 -2.76153 22.592 1.86175 0.559467 28.7808 3.88115e-006 -9.74356e-007 -179.156 1.84958 93.0474 -5.30295 -55.1765 -3.67061 8.15306 3.88074 8.41263 28.7808 1.25261e-005 1.77577e-005 -0.985544 6.55386 -88.7904 13.7797 -1.36983 2.63706 2.10669 -1.25252 2.69472 -20.4192 -2.09887 2.10376 -0.406584 -2.09885 2.10375 105.139 12.2389 -62.6946 7.13781 24.4348 -30.4771 5.37097 73.2111 -11.8005 -27.9573 -1.90526 2.621 -79.0117 -26.9718 94.5295 14.7484 -25.9137 -0.0428269 2.74603 20.0768 -3.79987 20.1245 1.06126 1.41823 7.15135 29.9334 19.8566 -5.62885 25.7046 -0.778682 
35.6377 103.477 2.71054 -89.3051 -55.225 -89.7006 179.578 14.6947 90.0762 -27.4732 -41.0981 -3.19938 23.4554 1.29487 -0.085539 28.7808 3.88115e-006 -9.74356e-007 -179.24 2.24384 92.576 -5.28495 -58.1388 -4.03034 8.02659 4.82036 9.88704 28.7808 1.25261e-005 1.77577e-005 -1.15826 6.54697 -88.4789 13.7845 -1.60815 2.78255 2.11142 -1.48412 2.85067 -20.4156 -2.37049 2.17112 -0.402976 -2.37049 2.17112 104.802 15.3427 -61.3836 8.75573 23.6042 -31.7035 2.27681 65.1587 -8.85726 -28.402 0.0935314 -5.58166 -81.0396 -29.1772 90.5941 17.6572 -25.8987 2.76601 3.30634 35.025 -4.37604 17.3014 0.638821 -0.190215 4.44518 30.5074 22.934 -1.98653 26.218 -1.87977 
36.6337 103.411 3.03695 -89.4228 -50.5305 -88.8748 179.73 14.9255 90.8352 -29.0041 -42.8093 -3.44281 23.5304 0.230361 -1.3362 28.7808 3.88115e-006 -9.74356e-007 -179.081 2.63864 92.9118 -5.5202 -60.283 -4.32792 7.45572 5.25344 10.6939 28.7808 1.25261e-005 1.77577e-005 -1.20288 6.57617 -88.4079 13.7242 -1.67113 2.80035 2.05119 -1.54614 2.87139 -20.4767 -2.43648 2.16793 -0.464034 -2.43648 2.16789 104.602 17.1763 -60.081 6.87354 24.9134 -32.6773 2.36356 65.4845 -8.93783 -28.8057 0.529892 -7.31459 -83.5745 -31.5603 85.9718 18.8194 -27.2884 -0.295151 2.95711 26.4772 -4.01918 11.6241 1.74254 10.4443 2.31087 30.688 24.8774 0.323168 26.492 -2.08395 
37.6107 103.38 3.25196 -89.6176 -45.9113 -88.1633 179.833 14.9199 91.5828 -30.0731 -44.1199 -3.60623 23.6203 -0.953096 -2.72898 28.7808 3.88115e-006 -9.74356e-007 -178.804 2.98536 93.4757 -5.42903 -59.4566 -4.21052 5.70831 5.35831 11.2765 28.7808 1.25261e-005 1.77577e-005 -1.28231 6.59486 -88.3237 13.6872 -1.78039 3.02935 2.01379 -1.64543 3.10468 -20.5123 -2.6083 2.35466 -0.499626 -2.60832 2.35467 103.697 22.68 -56.3518 10.2078 23.246 -36.6112 3.91686 70.1747 -10.4033 -27.1249 0.645632 -7.94871 -84.9216 -31.9951 83.4956 18.6458 -27.6022 -1.44817 3.01501 28.0641 -4.07831 11.0103 2.01034 13.4145 2.86264 31.4912 22.2817 -0.569462 27.6248 -0.00829457 
38.6281 103.393 3.39864 -89.0321 -41.3243 -86.9484 179.839 15.6649 92.1989 -31.338 -49.0145 -4.40052 22.5788 -1.8932 -3.91431 28.7808 3.88115e-006 -9.74356e-007 -178.459 3.93985 94.0532 -5.05442 -55.5319 -3.71103 3.65272 5.77753 12.508 28.7808 1.25261e-005 1.77577e-005 -1.37865 6.55868 -88.226 13.7626 -1.91592 3.21301 2.08892 -1.77273 3.29411 -20.4365 -2.79279 2.48921 -0.423886 -2.79281 2.4892 104.956 16.4262 -58.315 -0.0827403 30.0123 -35.8461 5.14705 72.8045 -11.5844 -26.9632 0.852959 -8.85225 -86.1734 -33.5792 81.4902 20.1666 -27.4877 0.353392 3.1469 31.4099 -4.21321 15.7589 1.10735 3.19404 4.26832 32.291 20.0222 -1.88049 28.5267 0.990227 
39.8014 103.514 3.45614 -88.3926 -36.5904 -85.4523 179.972 15.2937 92.9651 -30.325 -50.9505 -4.8168 24.0457 -3.31845 -5.43562 28.7808 3.88115e-006 -9.74356e-007 -178.108 4.72441 94.5882 -4.50461 -46.8144 -2.85745 3.99361 6.46434 13.5469 28.7808 1.25261e-005 1.77577e-005 -1.39876 6.51052 -88.1694 13.8547 -1.93072 3.23961 2.18091 -1.78653 3.32125 -20.3444 -2.8136 2.50972 -0.331717 -2.81362 2.50973 105.597 12.9904 -58.8802 -6.16272 33.9099 -35.3751 3.37545 68.7515 -9.88831 -27.7676 2.15652 -14.1229 -87.8654 -34.2823 78.5631 19.0654 -27.6715 -1.21724 3.05085 29.0092 -4.11498 17.5014 2.1246 8.21563 2.95687 32.0807 21.0889 0.208296 28.3496 -0.312736 
41.2209 103.844 3.38748 -88.3809 -31.6078 -84.1621 179.909 15.281 93.6988 -29.9094 -56.4436 -5.81613 24.0569 -1.3197 -3.11194 28.7808 3.88115e-006 -9.74356e-007 -177.746 5.26446 95.5966 -4.85551 -34.1512 -1.95625 4.25961 6.53479 13.6154 28.7808 1.25261e-005 1.77577e-005 -1.2979 6.56905 -88.5069 13.7462 -1.83429 3.35696 2.07198 -1.68484 3.43431 -20.4498 -2.75948 2.65115 -0.437134 -2.7595 2.65114 105.511 14.8612 -56.6059 -5.67009 33.983 -36.9079 2.36395 65.4859 -8.93822 -27.5661 3.44079 -19.4787 -89.4766 -34.6174 75.7437 21.2409 -27.4106 1.53024 3.34365 35.8218 -4.41376 14.1663 1.00071 3.12237 3.31077 31.6818 20.7034 0.982763 27.9504 -0.496122 
42.6711 103.534 3.32936 -89.6774 -26.4691 -84.2035 179.935 15.3864 93.9988 -32.7856 -60.6809 -7.17324 25.1022 -1.91924 -3.68649 28.7808 3.88115e-006 -9.74356e-007 -179.099 13.2062 96.2513 -25.194 -23.853 -1.42131 9.91474 3.64779 7.66408 28.7808 1.25261e-005 1.77577e-005 -1.32189 6.71567 -88.2008 13.4549 -1.78046 3.5727 1.78009 -1.62215 3.64752 -20.7373 -2.7693 2.87296 -0.724655 -2.7693 2.87297 105.07 16.9272 -56.3214 -5.82872 34.3264 -37.6978 2.73126 66.7774 -9.28119 -29.1684 4.56979 -23.0232 -90.8361 -34.1785 73.1999 21.0365 -26.9537 2.64509 3.20585 32.8001 -4.27343 13.7325 0.968165 3.12301 3.04119 31.5104 19.7755 1.09726 27.964 0.104822 
44.0968 102.874 3.32702 -91.0358 -21.74 -84.5312 179.956 16.1366 93.9989 -37.6059 -64.142 -9.01117 26.2134 -2.90965 -4.64787 28.7808 3.88115e-006 -9.74356e-007 179.792 17.7074 96.848 -39.9182 -13.8313 -1.03533 5.79215 0.0439615 2.54135 28.7808 1.25261e-005 1.77577e-005 -1.43753 6.84977 -87.6742 13.1664 -1.88342 3.79085 1.49111 -1.71488 3.86991 -21.0238 -2.93518 3.05052 -1.01117 -2.93517 3.05049 104.704 18.3527 -56.6498 -7.70903 35.7348 -38.1938 2.95943 67.5156 -9.49548 -28.4839 4.46298 -23.0136 -91.6879 -35.1783 71.9599 22.3363 -26.7962 4.12579 3.30741 35.0575 -4.37684 13.3166 0.645659 0.969709 2.49265 31.7466 19.9797 0.488048 28.2791 0.0398215 
